<?xml version="1.0" encoding="utf-8"?>
<!-- Generator: Adobe Illustrator 15.1.0, SVG Export Plug-In . SVG Version: 6.00 Build 0)  -->
<!DOCTYPE svg PUBLIC "-//W3C//DTD SVG 1.1//EN" "http://www.w3.org/Graphics/SVG/1.1/DTD/svg11.dtd">
<svg version="1.1" id="レイヤー_1" xmlns="http://www.w3.org/2000/svg" xmlns:xlink="http://www.w3.org/1999/xlink" x="0px"
	 y="0px" width="260px" height="30px" viewBox="0 0 260 30" enable-background="new 0 0 260 30" xml:space="preserve">
<text transform="matrix(1 0 0 1 -120.333 -33.1543)"><tspan x="0" y="0" fill="#333333" font-family="'Arial-BoldMT'" font-size="31.8021">F</tspan><tspan x="18.949" y="0" fill="#333333" font-family="'Arial-BoldMT'" font-size="31.8021">u</tspan><tspan x="38.534" y="0" fill="#333333" font-family="'Arial-BoldMT'" font-size="31.8021">r</tspan><tspan x="51.705" y="0" fill="#333333" font-family="'Arial-BoldMT'" font-size="31.8021">n</tspan><tspan x="71.29" y="0" fill="#333333" font-family="'Arial-BoldMT'" font-size="31.8021">it</tspan><tspan x="92.305" y="0" fill="#333333" font-family="'Arial-BoldMT'" font-size="31.8021">u</tspan><tspan x="111.89" y="0" fill="#333333" font-family="'Arial-BoldMT'" font-size="31.8021">re Desi</tspan><tspan x="223.529" y="0" fill="#333333" font-family="'Arial-BoldMT'" font-size="31.8021">g</tspan><tspan x="243.114" y="0" fill="#333333" font-family="'Arial-BoldMT'" font-size="31.8021">n</tspan></text>
<g>
	<path fill="#333333" d="M0.974,23.035V0.271H16.58v3.851H5.57V9.51h9.503v3.852H5.57v9.674H0.974z"/>
	<path fill="#333333" d="M30.715,23.035v-2.469c-0.601,0.881-1.39,1.574-2.368,2.081s-2.011,0.761-3.098,0.761
		c-1.108,0-2.102-0.243-2.981-0.729c-0.88-0.487-1.517-1.17-1.91-2.05s-0.59-2.097-0.59-3.649V6.545h4.363v7.578
		c0,2.318,0.08,3.739,0.24,4.262c0.161,0.523,0.453,0.938,0.878,1.242c0.424,0.306,0.963,0.459,1.615,0.459
		c0.745,0,1.413-0.205,2.003-0.614s0.993-0.916,1.211-1.521s0.326-2.089,0.326-4.449V6.545h4.363v16.49H30.715z"/>
	<path fill="#333333" d="M43.623,23.035h-4.364V6.545h4.054v2.344c0.693-1.107,1.316-1.837,1.871-2.189
		c0.554-0.352,1.183-0.527,1.887-0.527c0.993,0,1.951,0.274,2.872,0.822l-1.351,3.805c-0.735-0.476-1.419-0.714-2.05-0.714
		c-0.611,0-1.129,0.169-1.553,0.505c-0.425,0.336-0.759,0.945-1.002,1.824c-0.243,0.881-0.364,2.723-0.364,5.528V23.035z"/>
	<path fill="#333333" d="M67.617,23.035h-4.364v-8.416c0-1.78-0.093-2.932-0.279-3.455c-0.187-0.522-0.489-0.929-0.908-1.219
		c-0.419-0.289-0.924-0.436-1.514-0.436c-0.756,0-1.435,0.208-2.034,0.621c-0.601,0.415-1.013,0.963-1.235,1.646
		s-0.333,1.947-0.333,3.789v7.469h-4.364V6.545h4.054v2.422c1.438-1.863,3.25-2.795,5.435-2.795c0.963,0,1.843,0.174,2.64,0.52
		c0.797,0.348,1.4,0.79,1.81,1.328c0.408,0.539,0.693,1.149,0.854,1.832c0.16,0.684,0.241,1.662,0.241,2.936V23.035z"/>
	<path fill="#333333" d="M72.201,4.309V0.271h4.363v4.037H72.201z M72.201,23.035V6.545h4.363v16.49H72.201z"/>
	<path fill="#333333" d="M89.395,6.545v3.479h-2.981v6.646c0,1.346,0.028,2.13,0.085,2.353s0.187,0.406,0.389,0.551
		c0.201,0.146,0.447,0.218,0.737,0.218c0.403,0,0.988-0.14,1.755-0.419l0.372,3.385c-1.015,0.436-2.163,0.652-3.447,0.652
		c-0.787,0-1.496-0.132-2.127-0.396c-0.632-0.264-1.095-0.605-1.39-1.024s-0.5-0.985-0.613-1.7
		c-0.094-0.508-0.141-1.531-0.141-3.074v-7.189H80.03V6.545h2.003V3.268l4.38-2.547v5.824H89.395z"/>
	<path fill="#333333" d="M104.071,23.035v-2.469c-0.601,0.881-1.39,1.574-2.368,2.081s-2.011,0.761-3.098,0.761
		c-1.108,0-2.102-0.243-2.981-0.729c-0.88-0.487-1.517-1.17-1.91-2.05s-0.59-2.097-0.59-3.649V6.545h4.363v7.578
		c0,2.318,0.08,3.739,0.24,4.262c0.161,0.523,0.453,0.938,0.878,1.242c0.424,0.306,0.963,0.459,1.615,0.459
		c0.745,0,1.413-0.205,2.003-0.614s0.993-0.916,1.211-1.521s0.326-2.089,0.326-4.449V6.545h4.363v16.49H104.071z"/>
	<path fill="#333333" d="M116.979,23.035h-4.364V6.545h4.054v2.344c0.693-1.107,1.316-1.837,1.871-2.189
		c0.554-0.352,1.183-0.527,1.887-0.527c0.993,0,1.95,0.274,2.872,0.822l-1.351,3.805c-0.735-0.476-1.419-0.714-2.05-0.714
		c-0.611,0-1.129,0.169-1.553,0.505c-0.425,0.336-0.759,0.945-1.002,1.824c-0.243,0.881-0.364,2.723-0.364,5.528V23.035z"/>
	<path fill="#333333" d="M135.523,17.787l4.348,0.73c-0.559,1.594-1.441,2.808-2.646,3.641c-1.207,0.834-2.716,1.25-4.527,1.25
		c-2.868,0-4.99-0.937-6.367-2.811c-1.087-1.501-1.63-3.396-1.63-5.684c0-2.732,0.714-4.873,2.143-6.421s3.235-2.321,5.419-2.321
		c2.454,0,4.391,0.811,5.809,2.43c1.418,1.621,2.096,4.103,2.033,7.446h-10.932c0.031,1.294,0.383,2.301,1.056,3.021
		c0.673,0.719,1.512,1.079,2.516,1.079c0.684,0,1.258-0.187,1.724-0.56C134.933,19.216,135.285,18.615,135.523,17.787z
		 M135.771,13.377c-0.031-1.263-0.357-2.223-0.979-2.881c-0.621-0.656-1.377-0.986-2.267-0.986c-0.953,0-1.739,0.348-2.36,1.041
		s-0.927,1.636-0.916,2.826H135.771z"/>
	<path fill="#333333" d="M154.101,0.271h8.402c1.895,0,3.338,0.145,4.332,0.435c1.336,0.394,2.479,1.093,3.432,2.097
		s1.678,2.232,2.174,3.688s0.746,3.248,0.746,5.381c0,1.873-0.234,3.488-0.699,4.845c-0.57,1.656-1.383,2.997-2.438,4.021
		c-0.799,0.776-1.875,1.382-3.23,1.817c-1.016,0.32-2.371,0.48-4.068,0.48h-8.65V0.271z M158.698,4.122V19.2h3.432
		c1.283,0,2.209-0.072,2.779-0.218c0.746-0.186,1.363-0.502,1.855-0.947s0.893-1.178,1.203-2.197s0.467-2.409,0.467-4.169
		s-0.156-3.11-0.467-4.054c-0.311-0.941-0.744-1.676-1.305-2.204c-0.559-0.528-1.268-0.886-2.127-1.071
		c-0.643-0.145-1.9-0.218-3.773-0.218H158.698z"/>
	<path fill="#333333" d="M187.397,17.787l4.348,0.73c-0.559,1.594-1.441,2.808-2.646,3.641c-1.207,0.834-2.715,1.25-4.527,1.25
		c-2.867,0-4.99-0.937-6.367-2.811c-1.086-1.501-1.629-3.396-1.629-5.684c0-2.732,0.713-4.873,2.143-6.421
		c1.428-1.548,3.234-2.321,5.418-2.321c2.455,0,4.391,0.811,5.809,2.43c1.418,1.621,2.096,4.103,2.033,7.446h-10.932
		c0.031,1.294,0.383,2.301,1.057,3.021c0.672,0.719,1.512,1.079,2.516,1.079c0.684,0,1.258-0.187,1.723-0.56
		C186.808,19.216,187.159,18.615,187.397,17.787z M187.646,13.377c-0.031-1.263-0.357-2.223-0.979-2.881
		c-0.621-0.656-1.377-0.986-2.266-0.986c-0.953,0-1.74,0.348-2.361,1.041s-0.926,1.636-0.916,2.826H187.646z"/>
	<path fill="#333333" d="M194.792,18.33l4.379-0.668c0.186,0.85,0.564,1.494,1.133,1.934c0.57,0.44,1.367,0.66,2.393,0.66
		c1.127,0,1.977-0.207,2.547-0.621c0.383-0.289,0.574-0.678,0.574-1.164c0-0.332-0.104-0.605-0.311-0.823
		c-0.219-0.207-0.705-0.398-1.461-0.575c-3.52-0.775-5.75-1.484-6.691-2.127c-1.305-0.891-1.957-2.127-1.957-3.711
		c0-1.429,0.564-2.63,1.693-3.604c1.127-0.973,2.877-1.459,5.248-1.459c2.256,0,3.934,0.367,5.031,1.103s1.854,1.822,2.268,3.261
		l-4.115,0.762c-0.176-0.643-0.51-1.135-1.002-1.477c-0.492-0.341-1.193-0.512-2.104-0.512c-1.15,0-1.973,0.16-2.471,0.481
		c-0.33,0.228-0.496,0.522-0.496,0.886c0,0.311,0.145,0.574,0.436,0.791c0.393,0.29,1.752,0.699,4.076,1.227
		c2.324,0.528,3.945,1.176,4.867,1.941c0.912,0.776,1.367,1.858,1.367,3.246c0,1.511-0.633,2.811-1.895,3.896
		c-1.264,1.088-3.133,1.631-5.605,1.631c-2.248,0-4.025-0.455-5.334-1.366C196.052,21.131,195.196,19.895,194.792,18.33z"/>
	<path fill="#333333" d="M214.81,4.309V0.271h4.365v4.037H214.81z M214.81,23.035V6.545h4.365v16.49H214.81z"/>
	<path fill="#333333" d="M224.038,24.123l4.984,0.605c0.082,0.58,0.273,0.979,0.574,1.195c0.414,0.311,1.066,0.466,1.957,0.466
		c1.139,0,1.992-0.171,2.563-0.513c0.383-0.228,0.672-0.596,0.869-1.102c0.135-0.363,0.201-1.031,0.201-2.004v-2.406
		c-1.305,1.78-2.949,2.67-4.938,2.67c-2.215,0-3.971-0.937-5.264-2.811c-1.016-1.48-1.521-3.322-1.521-5.527
		c0-2.765,0.664-4.877,1.994-6.336s2.984-2.189,4.961-2.189c2.041,0,3.723,0.896,5.047,2.687V6.545h4.084v14.799
		c0,1.945-0.16,3.4-0.48,4.363s-0.771,1.718-1.352,2.267s-1.354,0.979-2.32,1.289c-0.969,0.311-2.193,0.466-3.674,0.466
		c-2.795,0-4.777-0.479-5.947-1.437s-1.754-2.171-1.754-3.642C224.022,24.506,224.026,24.33,224.038,24.123z M227.935,14.448
		c0,1.75,0.34,3.03,1.018,3.843c0.678,0.813,1.514,1.22,2.508,1.22c1.066,0,1.967-0.417,2.703-1.25
		c0.734-0.833,1.102-2.067,1.102-3.704c0-1.707-0.352-2.976-1.057-3.804c-0.703-0.828-1.594-1.243-2.67-1.243
		c-1.047,0-1.908,0.407-2.586,1.22S227.935,12.781,227.935,14.448z"/>
	<path fill="#333333" d="M259.026,23.035h-4.363v-8.416c0-1.78-0.094-2.932-0.279-3.455c-0.186-0.522-0.488-0.929-0.908-1.219
		c-0.42-0.289-0.924-0.436-1.514-0.436c-0.756,0-1.434,0.208-2.035,0.621c-0.6,0.415-1.012,0.963-1.234,1.646
		s-0.334,1.947-0.334,3.789v7.469h-4.363V6.545h4.053v2.422c1.439-1.863,3.25-2.795,5.436-2.795c0.963,0,1.842,0.174,2.639,0.52
		c0.799,0.348,1.4,0.79,1.811,1.328c0.408,0.539,0.693,1.149,0.854,1.832c0.16,0.684,0.24,1.662,0.24,2.936V23.035z"/>
</g>
</svg>
