<?xml version="1.0" encoding="utf-8"?>
<!-- Generator: Adobe Illustrator 15.1.0, SVG Export Plug-In . SVG Version: 6.00 Build 0)  -->
<!DOCTYPE svg PUBLIC "-//W3C//DTD SVG 1.1//EN" "http://www.w3.org/Graphics/SVG/1.1/DTD/svg11.dtd">
<svg version="1.1" id="レイヤー_1" xmlns="http://www.w3.org/2000/svg" xmlns:xlink="http://www.w3.org/1999/xlink" x="0px"
	 y="0px" width="175px" height="40px" viewBox="0 0 175 40" enable-background="new 0 0 175 40" xml:space="preserve">
<g>
	<path fill="#121212" d="M16.446,18.723c2.114,0.902,3.707,2.102,4.778,3.596c1.072,1.492,1.608,3.256,1.608,5.297
		c0,2.986-0.95,5.391-2.849,7.219c-1.9,1.822-4.415,2.738-7.55,2.738c-2.557,0-4.7-0.654-6.431-1.965
		c-1.729-1.309-2.896-3.166-3.502-5.576l3.502-1.727c0.474,1.965,1.254,3.453,2.34,4.467c1.086,1.012,2.45,1.52,4.09,1.52
		c1.936,0,3.503-0.561,4.701-1.676c1.198-1.117,1.796-2.568,1.796-4.357c0-1.447-0.417-2.709-1.253-3.781
		c-0.835-1.07-2.095-1.975-3.779-2.715l-3.947-1.684c-2.159-0.904-3.766-2.064-4.822-3.482c-1.057-1.418-1.585-3.117-1.585-5.1
		c0-2.303,0.856-4.211,2.572-5.719c1.714-1.508,3.901-2.262,6.563-2.262c1.95,0,3.639,0.414,5.066,1.242
		c1.426,0.827,2.539,2.046,3.336,3.658l-3.192,2.04c-0.725-1.255-1.539-2.19-2.44-2.803c-0.901-0.614-1.922-0.921-3.06-0.921
		c-1.448,0-2.635,0.444-3.558,1.331c-0.924,0.887-1.386,2.017-1.386,3.392c0,1.152,0.355,2.149,1.063,2.992
		c0.711,0.843,1.811,1.59,3.305,2.238L16.446,18.723z"/>
	<path fill="#121212" d="M27.621,36.75V16.463h3.393v3.125c0.872-1.299,1.921-2.268,3.148-2.904
		c1.228-0.635,2.646-0.953,4.257-0.953c2.396,0,4.266,0.635,5.61,1.906c1.346,1.271,2.018,3.039,2.018,5.301V36.75h-3.547V24.799
		c0-2.055-0.432-3.582-1.296-4.58c-0.865-0.996-2.199-1.496-4.002-1.496c-1.036,0-1.978,0.189-2.828,0.566
		c-0.85,0.379-1.556,0.914-2.117,1.605c-0.428,0.535-0.735,1.141-0.92,1.82c-0.186,0.68-0.278,1.861-0.278,3.547V36.75H27.621z"/>
	<path fill="#121212" d="M70.127,27.125H54.051v0.314c0,2.172,0.621,3.928,1.863,5.266c1.242,1.336,2.86,2.006,4.855,2.006
		c1.36,0,2.587-0.367,3.681-1.1c1.094-0.73,2.062-1.836,2.905-3.311l2.639,1.771c-1.019,1.834-2.32,3.217-3.902,4.145
		c-1.583,0.932-3.416,1.398-5.499,1.398c-3.09,0-5.587-1.02-7.495-3.059c-1.907-2.041-2.86-4.717-2.86-8.029
		c0-3.178,0.946-5.779,2.837-7.805c1.892-2.021,4.324-3.036,7.296-3.036c3,0,5.375,0.962,7.128,2.882
		c1.751,1.922,2.627,4.547,2.627,7.873V27.125z M66.401,24.313c-0.117-1.789-0.713-3.168-1.785-4.137
		c-1.071-0.967-2.539-1.453-4.401-1.453c-1.685,0-3.089,0.508-4.212,1.52c-1.124,1.014-1.774,2.369-1.952,4.07H66.401z"/>
	<path fill="#121212" d="M94.25,16.463V36.75h-3.369v-3.682c-0.813,1.48-1.852,2.605-3.116,3.383
		c-1.265,0.777-2.68,1.164-4.246,1.164c-2.913,0-5.259-1-7.04-3.006c-1.782-2-2.672-4.65-2.672-7.947
		c0-3.34,0.866-5.996,2.595-7.971c1.729-1.973,4.042-2.961,6.94-2.961c1.7,0,3.174,0.383,4.424,1.143
		c1.249,0.762,2.257,1.895,3.026,3.402v-3.813H94.25z M90.881,26.795c0-2.291-0.625-4.135-1.874-5.531
		c-1.25-1.398-2.879-2.096-4.89-2.096c-2.083,0-3.71,0.643-4.876,1.93c-1.168,1.285-1.753,3.082-1.753,5.387
		c0,2.455,0.587,4.346,1.763,5.674c1.174,1.332,2.841,1.996,5,1.996c2.069,0,3.691-0.645,4.867-1.938
		C90.292,30.922,90.881,29.117,90.881,26.795z"/>
	<path fill="#121212" d="M100.327,36.75V2.384h3.481v23.28l9.778-9.201h4.634l-10.133,9.289l11.042,10.998h-4.855l-10.465-10.709
		V36.75H100.327z"/>
	<path fill="#121212" d="M139.885,27.125h-16.077v0.314c0,2.172,0.621,3.928,1.863,5.266c1.241,1.336,2.859,2.006,4.855,2.006
		c1.36,0,2.587-0.367,3.682-1.1c1.093-0.73,2.063-1.836,2.903-3.311l2.64,1.771c-1.02,1.834-2.321,3.217-3.903,4.145
		c-1.581,0.932-3.415,1.398-5.498,1.398c-3.09,0-5.587-1.02-7.495-3.059c-1.907-2.041-2.86-4.717-2.86-8.029
		c0-3.178,0.946-5.779,2.838-7.805c1.891-2.021,4.323-3.036,7.295-3.036c3,0,5.376,0.962,7.128,2.882
		c1.752,1.922,2.629,4.547,2.629,7.873V27.125z M136.158,24.313c-0.117-1.789-0.713-3.168-1.784-4.137
		c-1.073-0.967-2.539-1.453-4.401-1.453c-1.686,0-3.09,0.508-4.213,1.52c-1.124,1.014-1.774,2.369-1.952,4.07H136.158z"/>
	<path fill="#121212" d="M144.252,36.75V16.463h3.082v4.213c0.932-1.758,1.921-3.016,2.971-3.771c1.05-0.75,2.329-1.129,3.837-1.129
		c0.414,0,0.813,0.034,1.197,0.101c0.385,0.065,0.768,0.167,1.152,0.3l-1.152,3.125c-0.399-0.133-0.777-0.232-1.131-0.299
		c-0.354-0.068-0.694-0.102-1.02-0.102c-1.834,0-3.208,0.662-4.125,1.984c-0.918,1.324-1.374,3.316-1.374,5.975v9.891H144.252z"/>
	<path fill="#121212" d="M157.092,33.336l2.971-1.994c0.562,1.078,1.271,1.887,2.128,2.428c0.856,0.537,1.869,0.809,3.038,0.809
		c1.137,0,2.059-0.283,2.76-0.844c0.702-0.561,1.054-1.299,1.054-2.217c0-0.711-0.241-1.301-0.721-1.773
		c-0.481-0.473-1.305-0.908-2.474-1.309c-0.117-0.043-0.311-0.109-0.575-0.199c-4.938-1.699-7.406-3.826-7.406-6.387
		c0-1.803,0.666-3.273,1.995-4.412c1.331-1.137,3.062-1.707,5.189-1.707c1.758,0,3.267,0.352,4.523,1.055
		c1.255,0.703,2.158,1.695,2.705,2.98l-2.817,1.73c-0.413-0.932-1.023-1.648-1.828-2.15c-0.807-0.504-1.74-0.756-2.806-0.756
		c-1.02,0-1.851,0.287-2.494,0.854c-0.643,0.568-0.965,1.297-0.965,2.186c0,1.24,1.345,2.283,4.037,3.125
		c0.502,0.164,0.9,0.289,1.197,0.379c2.201,0.707,3.734,1.52,4.601,2.426c0.864,0.91,1.296,2.109,1.296,3.604
		c0,1.924-0.684,3.477-2.05,4.668c-1.368,1.191-3.153,1.785-5.354,1.785c-1.895,0-3.5-0.354-4.822-1.063
		C158.95,35.84,157.889,34.77,157.092,33.336z"/>
</g>
</svg>
